<?xml version="1.0" encoding="UTF-8" standalone="no"?>
<svg
   xmlns:dc="http://purl.org/dc/elements/1.1/"
   xmlns:cc="http://creativecommons.org/ns#"
   xmlns:rdf="http://www.w3.org/1999/02/22-rdf-syntax-ns#"
   xmlns:svg="http://www.w3.org/2000/svg"
   xmlns="http://www.w3.org/2000/svg"
   xmlns:xlink="http://www.w3.org/1999/xlink"
   id="svg250"
   viewBox="0 0 354.38729 74.163873"
   height="74.163872pt"
   width="354.3873pt"
   version="1.1">
  <metadata
     id="metadata256">
    <rdf:RDF>
      <cc:Work
         rdf:about="">
        <dc:format>image/svg+xml</dc:format>
        <dc:type
           rdf:resource="http://purl.org/dc/dcmitype/StillImage" />
        <dc:title></dc:title>
      </cc:Work>
    </rdf:RDF>
  </metadata>
  <defs
     id="defs254" />
  <g
     transform="translate(6.2104225,7.8983924)"
     style="enable-background:accumulate"
     id="g248">
    <path
       style="fill:none;stroke:#ffffff;stroke-width:1.59404004;stroke-linecap:round;stroke-linejoin:round"
       id="path2"
       d="m -6.03395,-30.4716 39.75987,-11.25968 -54.77746,-7.3566 z"
       transform="matrix(0.53929,0,0,-0.53929,108.41455,29.185242)" />
    <path
       style="fill:none;stroke:#ffffff;stroke-width:1.59404004;stroke-linecap:round;stroke-linejoin:round"
       id="path4"
       d="m -21.05154,-49.08788 -17.11432,44.62381 -12.29966,-2.975 z"
       transform="matrix(0.53929,0,0,-0.53929,108.41455,29.185242)" />
    <path
       style="fill:none;stroke:#ffffff;stroke-width:1.59404004;stroke-linecap:round;stroke-linejoin:round"
       id="path6"
       d="m -50.46552,-7.43907 36.59833,33.09706 7.83324,-56.12959 z"
       transform="matrix(0.53929,0,0,-0.53929,108.41455,29.185242)" />
    <path
       style="fill:none;stroke:#ffffff;stroke-width:1.59404004;stroke-linecap:round;stroke-linejoin:round"
       id="path8"
       d="m 13.86719,-25.65799 19.85873,-16.07329 -54.77746,-7.3566 z"
       transform="matrix(0.53929,0,0,-0.53929,108.41455,29.185242)" />
    <path
       style="fill:none;stroke:#ffffff;stroke-width:1.59404004;stroke-linecap:round;stroke-linejoin:round"
       id="path10"
       d="m -33.72592,41.73128 -4.43994,-46.19535 -12.29966,-2.975 z"
       transform="matrix(0.53929,0,0,-0.53929,108.41455,29.185242)" />
    <path
       style="fill:none;stroke:#ffffff;stroke-width:1.59404004;stroke-linecap:round;stroke-linejoin:round"
       id="path12"
       d="M 38.16586,4.46407 -13.86719,25.65799 -6.03395,-30.4716 Z"
       transform="matrix(0.53929,0,0,-0.53929,108.41455,29.185242)" />
    <path
       style="fill:none;stroke:#ffffff;stroke-width:1.59404004;stroke-linecap:round;stroke-linejoin:round"
       id="path14"
       d="m -13.86719,25.65799 34.91873,23.42989 -54.77746,-7.3566 z"
       transform="matrix(0.53929,0,0,-0.53929,108.41455,29.185242)" />
    <path
       style="fill:none;stroke:#ffffff;stroke-width:1.59404004;stroke-linecap:round;stroke-linejoin:round"
       id="path16"
       d="M 33.72592,-41.73128 50.46552,7.43907 38.16586,4.46407 Z"
       transform="matrix(0.53929,0,0,-0.53929,108.41455,29.185242)" />
    <path
       style="fill:none;stroke:#ffffff;stroke-width:1.59404004;stroke-linecap:round;stroke-linejoin:round"
       id="path18"
       d="M -38.16586,-4.46407 6.03395,30.4716 13.86719,-25.65799 Z"
       transform="matrix(0.53929,0,0,-0.53929,108.41455,29.185242)" />
    <path
       style="fill:none;stroke:#ffffff;stroke-width:1.59404004;stroke-linecap:round;stroke-linejoin:round"
       id="path20"
       d="m 6.03395,30.4716 15.01759,18.61628 -54.77746,-7.3566 z"
       transform="matrix(0.53929,0,0,-0.53929,108.41455,29.185242)" />
    <path
       style="fill:none;stroke:#ffffff;stroke-width:1.59404004;stroke-linecap:round;stroke-linejoin:round"
       id="path22"
       d="M 21.05154,49.08788 50.46552,7.43907 38.16586,4.46407 Z"
       transform="matrix(0.53929,0,0,-0.53929,108.41455,29.185242)" />
    <path
       style="fill:none;stroke:#ffffff;stroke-width:1.59404004;stroke-linecap:round;stroke-linejoin:round"
       id="path24"
       d="M 50.46552,7.43907 6.03395,30.4716 13.86719,-25.65799 Z"
       transform="matrix(0.53929,0,0,-0.53929,108.41455,29.185242)" />
    <path
       style="fill:none;stroke:#ffffff;stroke-width:0.3985;stroke-linecap:butt;stroke-linejoin:miter;stroke-miterlimit:10"
       id="path26"
       d="M -70.09471,-53.91887 V 53.91887"
       stroke-miterlimit="10"
       transform="matrix(0.53929,0,0,-0.53929,108.41455,29.185242)" />
    <path
       style="fill:#ffffff;fill-rule:evenodd"
       id="path28"
       d="m -196.20961,0.00298 c 0,28.90302 23.51945,52.42149 52.42898,52.42149 28.90305,0 52.42016,-23.51847 52.42016,-52.42149 0,-28.90954 -23.51711,-52.42116 -52.42016,-52.42116 -28.90953,0 -52.42898,23.51162 -52.42898,52.42116 z m -1.504,0 c 0,-29.73848 24.19588,-53.92617 53.93298,-53.92617 29.73748,0 53.93336,24.18769 53.93336,53.92617 0,29.73745 -24.19588,53.92651 -53.93336,53.92651 -29.7371,0 -53.93298,-24.18906 -53.93298,-53.92651 z"
       transform="matrix(0.53929,0,0,-0.53929,108.41455,29.185242)" />
    <path
       style="fill:#ffffff;fill-rule:evenodd"
       id="path30"
       d="m -108.348,-8.76738 c -1.47327,-1.36782 -3.553,-1.3876 -5.23513,-2.49811 -0.76921,-0.76922 -0.57742,-1.65176 -0.26276,-2.62371 0.62383,-1.22892 0.38665,-1.10503 -0.47984,-1.39443 -2.03159,-0.67572 -2.01179,-2.90082 -4.45804,-2.53156 -0.13856,-0.03857 -0.70917,0.24947 -0.3679,-0.16381 0.26278,-0.30921 0.3679,-0.12526 0.88664,-0.18395 0.86922,-0.04539 1.19853,0.31601 1.80908,0.73032 0.86785,0.73613 0.76239,1.01187 1.84082,1.52514 0.25595,0.06553 0.88663,0.24811 1.24257,0.12423 0.2372,-0.2174 0.24402,-0.22422 0.28258,-0.42011 -0.13855,-0.59859 -1.00505,-1.09173 -1.3412,-1.29581 0.46139,-0.3358 1.31595,-0.90095 1.17056,-1.37429 -0.19862,-0.31466 -0.1853,-0.36927 -0.52658,-0.53206 -0.48665,-0.23719 -1.45177,-0.19725 -2.36604,0.47984 -0.13889,-0.04504 -0.2894,0.26277 -0.67608,-0.10648 0.88663,-0.91325 2.12887,-0.7078 2.3142,-0.89313 0.18939,-0.18394 -0.66515,-1.28794 -0.69724,-1.52512 -0.59961,-1.58488 0.13071,-3.04483 -0.1853,-4.69387 -0.19726,-1.2825 -0.58632,-1.89441 -1.70875,-2.71005 -2.07186,-1.433 -3.525,-1.84628 -5.83918,-2.22235 -6.08831,-0.41328 -9.92761,1.677 -14.30682,4.95254 -4.38569,3.27382 -6.06272,5.0085 -7.42916,6.8507 -0.0201,0.75455 0.5317,1.32789 0.0601,2.14216 -0.39623,-0.13855 -0.35597,-0.65695 -0.59348,-0.95317 -0.34128,-0.47845 -1.14907,-0.82759 -1.72889,-0.76922 -1.8009,0.61189 -1.89987,2.72915 -3.03153,3.9393 -2.41143,2.37968 -3.09022,5.81256 -1.79952,8.68538 0.45183,0.88629 1.26884,1.7422 2.1821,2.05822 1.12379,0.17575 2.45169,0.17575 3.18748,-0.91461 0.86922,-0.8293 1.40775,-2.17698 1.62514,-3.36598 0.35457,-0.57198 -0.0788,-1.23062 0.51328,-1.70361 1.03166,-0.09864 1.91827,-0.3546 2.91139,0.27574 0.73715,-0.09863 0.83577,-0.9129 1.39444,-1.26886 l 0.98524,-0.5921 c 1.05283,-0.4317 2.40735,-0.4317 3.29398,0.33613 1.66505,1.70229 1.30229,3.4578 1.87562,5.33888 1.59034,1.40639 2.64214,3.41954 2.62235,5.38562 -0.0976,1.20775 -0.53206,2.45818 -1.2494,3.66219 0.11875,0.71462 0.52009,1.24905 0.74941,1.88622 0.20375,0.11876 0.46108,0.11876 0.67846,0.15733 1.76779,0.37471 3.3728,1.97835 4.06183,3.66867 l 0.1587,0.15869 c 2.0251,0.13719 4.54335,0.85454 5.7071,2.97009 0.244,0.91462 1.26919,0.23718 1.90634,0.45458 1.07296,0.0587 2.14216,0.65864 2.95269,1.34767 0.23479,0.07884 0.41329,-0.17711 0.55866,-0.29587 0.47336,-1.58385 1.34121,-3.11001 1.84082,-4.72047 0.61055,-1.20368 0.83476,-2.35276 0.61055,-3.58336 0.25595,-1.88112 1.33574,-3.64993 2.08517,-5.54977 0.75046,-2.00498 1.91967,-4.02326 2.77557,-6.08796 0.15597,-0.82792 0.51054,-1.48658 0,-2.15582 z m 0.41328,3.45811 c -1.42788,3.29397 -3.03153,6.12038 -4.20072,9.43412 -0.83441,1.1907 -0.35596,2.45306 -0.46141,3.72874 -0.53169,1.97838 -1.36746,3.50488 -2.15547,5.43101 -0.22388,0.55186 0.39314,0.70917 0.61054,1.10538 0.35458,0.97161 0.10545,2.06232 -0.33445,2.99672 -0.17746,0.53307 0.45833,0.9078 0.33445,1.45963 -0.0188,0.85455 -0.76922,1.433 -1.36646,1.88655 -0.89584,1.28899 -1.31049,1.96606 -2.42099,3.12981 v 0.22421 c 0.55867,0.49315 1.01324,1.34769 0.99994,2.077 -0.22388,0.82894 -0.40134,1.60363 -1.19719,2.18345 -1.26884,0.71054 -2.55682,-0.39996 -3.56322,-0.97331 -0.28257,-0.19589 -0.4201,-0.39588 -0.81598,-0.36105 -0.25596,0.09179 -0.5184,0.18939 -0.79449,0.28939 -0.25733,-0.29623 -0.57846,-0.61328 -0.96648,-0.92144 l 1.22927,-0.49996 c 0.0399,-0.03311 0.0587,-0.05836 0.0587,-0.10512 0,-0.01876 -0.0136,-0.0587 -0.0136,-0.09077 -0.084,-0.07338 -2.85271,-2.49948 -2.85271,-2.49948 -0.006,-0.0055 -4.98428,-4.91774 -4.98428,-4.91774 0,-0.0055 -1.42003,-1.45314 -1.42003,-1.45314 -0.0119,-0.0065 -4.43108,-5.10167 -4.43108,-5.10167 -2.31418,-2.68344 -5.73373,-7.08142 -7.78409,-10.30234 -1.07159,-1.47292 -2.1367,-3.11137 -3.1298,-4.66315 -0.10546,-0.17062 -0.30817,-0.15596 -0.63204,-0.11703 -0.21603,0.0266 -0.44537,0.04504 -0.64398,-0.02014 h 0.007 l -0.0454,-0.01195 c 0.0133,0.00511 0.0266,0.00511 0.0386,0.01195 -1.12518,-0.12526 -1.94629,-0.49997 -2.81925,-1.28797 -1.13201,-1.34222 -1.70399,-2.95918 -1.70399,-4.7082 0,-1.20401 0.26961,-2.47182 0.82144,-3.74069 -0.23068,-0.6839 -0.76272,-1.28385 -1.24119,-1.81591 l -0.27065,-0.29587 -0.34126,-0.34127 c -0.21739,-0.20375 -0.47472,-0.4464 -0.65182,-0.67709 l -0.0201,-0.02013 -0.0133,-0.03209 c -0.0188,-0.07168 -0.0321,-0.21058 0.19214,-0.31568 l 0.0519,-0.03207 0.0601,0.01195 c 1.045,0.25049 1.70229,1.03984 2.3408,1.80226 0,0 0.39997,0.46002 0.45867,0.53203 0.1,0.01332 0.17849,-0.03856 0.31056,-0.15869 0.072,-0.05869 0.15596,-0.11057 0.24948,-0.15596 0,-0.02799 0,-0.0546 0,-0.0546 0,0 -0.0137,-0.34128 -0.0137,-0.42011 -2.47797,-2.44624 -4.49762,-3.826 -7.13974,-5.37742 l -0.44127,-0.25597 0.51326,-0.05493 c 1.02622,-0.10376 2.00601,0.47606 2.9527,1.03473 l 1.13711,0.62385 c 1.04497,0.53853 2.01828,1.35963 2.96601,2.14898 0,0 0.84669,0.71054 0.93849,0.7904 0.0935,-0.02116 0.19077,-0.13208 0.26279,-0.22389 0,0 0.0601,-0.05869 0.1,-0.09998 0.0133,-0.02526 0.78903,-1.56372 0.83443,-1.65586 -0.17712,-0.72384 -0.24913,-1.45279 -0.24913,-2.18346 0,-1.58385 0.34126,-3.16872 0.67708,-4.71399 0.33479,-1.52481 0.67605,-3.09534 0.67605,-4.64029 0,-0.10683 0,-0.20408 -0.007,-0.30406 0,-0.47847 -0.51874,-1.11051 -0.95863,-1.31424 -0.98628,-0.16415 -2.19029,-0.17885 -3.45264,-0.19214 -1.5569,-0.01059 -3.16737,-0.02391 -4.40448,-0.36004 -0.3945,-0.04642 -0.85591,-0.17713 -1.30126,-0.30237 -0.43446,-0.11741 -0.88901,-0.25084 -1.31014,-0.30273 l -0.0389,-0.0068 -0.0519,-0.03856 -0.1505,-0.10649 c -0.1389,-0.08394 -0.31738,-0.19623 -0.35594,-0.39997 0,-0.02012 -0.007,-0.03889 -0.007,-0.06006 0,-0.11058 0.0519,-0.2505 0.14537,-0.33479 0.0853,-0.0918 0.18941,-0.13035 0.3027,-0.1266 0.37302,0 0.79448,0.15868 1.20095,0.30406 0.28393,0.10547 0.57981,0.21057 0.84909,0.25732 2.58514,0.43992 5.41121,0.35323 7.33223,0.19726 0.94499,0.01332 2.49676,0.04539 3.05679,1.39308 0.20271,0.54535 0.27574,1.0518 0.27574,1.53845 0,0.53853 -0.0853,1.05181 -0.17064,1.58385 l -0.172,1.30879 c -0.11058,0.79584 -0.28257,1.59065 -0.44639,2.36774 -0.2894,1.35963 -0.58527,2.766 -0.58527,4.1939 0,0.28939 0.0133,0.57983 0.0399,0.86922 0.0266,0.03856 0.0573,0.07849 0.0986,0.08394 0.0788,0.01332 0.22421,-0.10545 0.34127,-0.19725 0.13208,-0.09726 0.26927,-0.20408 0.42147,-0.24265 0.17202,-0.12388 0.36107,-0.16517 0.53853,-0.18531 0.25051,-0.03208 0.38255,-0.06519 0.46106,-0.25596 0.1041,-1.24768 0.53887,-2.54486 0.95864,-3.80075 0.29077,-0.85966 0.58665,-1.74765 0.77708,-2.62199 0.34126,-1.51968 0.68254,-3.06496 0.68254,-4.59012 0,-0.90777 -0.11707,-1.80737 -0.4399,-2.68991 -0.6573,-1.20775 -2.10872,-1.20775 -3.50317,-1.21459 h -0.42146 l -3.43253,0.21058 c -2.93973,0.21055 -5.98183,0.42795 -9.09968,-0.07338 0.0198,0 -0.69722,-0.0785 -0.69722,-0.0785 -0.38668,-0.0587 -0.74806,-0.10545 -1.13712,-0.0133 -0.14538,0.11841 -0.26277,0.31601 -0.26277,0.53307 0,0.06688 0.0133,0.13206 0.0399,0.19725 0.55865,1.22926 0.83577,2.33976 0.83577,3.32638 0,0.79586 -0.18531,1.50638 -0.54775,2.1367 -0.80778,1.5453 -1.69577,2.61689 -2.78751,3.36735 -1.34121,1.33471 -2.48344,2.52507 -3.5035,3.68095 -0.59177,0.07202 -0.95318,0.1918 -1.00095,0.20375 l -0.13071,0.04675 -0.59039,-0.73715 c 0.76887,-0.72929 1.48624,-1.46643 2.35274,-2.2558 1.32786,-0.71429 2.40085,-2.00499 3.35264,-2.87931 1.1518,-1.33985 1.42789,-2.76738 1.18251,-4.35807 -0.14914,-1.88211 -1.87289,-2.69536 -3.0421,-3.93792 -0.47984,-0.89449 -0.77571,-1.96608 -0.12388,-2.79401 0.41975,-1.11322 2.20086,-0.91461 2.41826,-1.82785 0.49313,-2.01419 3.98332,-3.17656 4.66828,-3.22196 0.6774,-0.04812 1.38111,-0.80369 1.38111,-0.80369 1.3866,-1.01187 3.20763,-0.76138 4.16729,-0.61737 0.95316,0.14538 2.66361,-0.63068 3.74204,-0.47197 1.59716,0.63716 2.91277,0.34126 4.57511,0.47845 5.23375,-0.07847 11.17804,0.03891 16.52919,-0.63716 0.99308,0.11742 2.17697,-0.65182 3.11001,-0.17848 0.24265,0.40272 0.0601,0.73717 0,1.07161 -2.55818,4.02461 -2.93803,8.54137 -1.48625,12.92056 l 0.95967,-0.05324 c 3.47962,-0.38153 6.63501,0.07303 10.15969,2.11146 1.76095,0.9733 2.68887,3.24073 2.60868,4.89112 -0.0587,1.0651 -0.42796,2.32747 -0.24913,3.4581 0.0652,0.5051 0.39451,1.27432 0.8344,1.51184 0.17748,0.10512 0.82929,0.54639 1.03203,1.11153 0.33578,0.91324 -0.38019,1.34804 -0.59076,1.47328 0.56515,0.2307 1.10367,1.37294 0.59076,2.26741 -0.32797,0.34946 -0.716,1.74392 -0.75594,2.19576 -0.12422,0.65864 -0.14401,1.32788 0.47301,1.74902 1.38796,0.73065 2.69707,0.90915 4.14339,1.54492 0.99174,0.41602 1.50638,1.44769 1.46507,2.3756 z m -56.66216,-32.67683 c -0.17848,-0.32251 -0.15732,-0.53342 -0.23718,-0.91325 -0.0986,-0.17849 -0.59177,0.0587 -0.74909,0.15595 -0.61191,0.3307 -0.57197,0.1587 -0.75079,0.73067 -0.0973,0.38257 -0.0904,0.82793 0.54806,1.16375 0.39316,0.2225 1.189,0.49177 1.44497,0 0.0802,-0.33582 -0.31466,-0.76241 -0.25597,-1.13712 z m 3.37826,-4.28741 c -0.81462,-0.01844 -1.37976,0.42796 -1.75312,1.38113 -0.38256,1.2238 -0.51326,2.29438 -0.25048,3.55673 0.0853,0.15085 0.26108,0.25733 0.38118,0.20409 l 1.13167,0.38801 c 0.38019,0.15188 0.69722,0.20375 1.05727,0.11707 l 0.22387,-0.22797 c -0.0147,-0.65831 -0.17712,-1.14497 -0.19042,-1.75549 -0.0669,-1.533 -0.19761,-1.99304 0.24263,-3.45266 -0.16414,-0.38804 -0.49212,-0.20272 -0.8426,-0.21091 z m 46.57688,57.01126 c -0.11058,-0.11876 -0.24913,-0.25595 -0.43307,-0.21056 -0.42011,0.29587 -0.26416,0.67058 -0.23754,1.02518 0.0867,0.08531 0.1,0.1307 0.23754,0.1307 0.19723,0.0413 0.30781,-0.11091 0.37983,-0.21739 0.12525,-0.22796 0.14538,-0.49075 0.0532,-0.72793 z M -146.7985,-3.82303 c 2.77422,4.97643 6.14017,9.29727 9.75016,13.73485 l 5.0563,5.74701 c 3.60213,3.84479 7.58683,7.79057 12.00597,10.83951 0.55866,0.31738 0.8013,0.97466 1.37293,0.51465 l 0.52011,-0.47985 c 0.3491,-0.39621 0.0468,-1.52004 -0.30919,-1.83435 -0.28942,-0.2375 -0.56549,-0.46139 -0.84123,-0.6907 0.86102,-0.85457 2.11007,-2.47936 3.12876,-3.53116 0.44777,-0.46004 0.30921,-0.93987 1.11189,-1.30809 0.40098,-0.1918 0.51838,-0.63034 0.27709,-1.00643 -0.71052,-0.91323 -1.89439,-0.77571 -2.82879,-1.01289 -3.47142,-0.76922 -6.27225,-1.76131 -10.11158,-3.62227 -3.07008,-1.63162 -5.5228,-3.43252 -7.75062,-6.22549 -0.8491,-1.05316 -1.80364,-1.84902 -2.51417,-3.11002 -2.02373,-2.59845 -3.62875,-5.03648 -5.23921,-7.71342 -0.57162,-0.84124 -0.75557,-1.26236 -1.56472,-2.01828 -0.38669,-0.37473 -0.73613,0.40133 -0.98015,0.67059 -0.0252,0.02663 -0.0451,0.06656 -0.0652,0.09215 -0.0799,-0.01366 -0.16382,0.00648 -0.24913,0.05835 -0.21741,0.28395 -0.89345,0.40271 -0.76925,0.89584 z m 30.56643,19.21806 c -0.0533,-0.96134 -1.33576,-1.75584 -2.40769,-2.05171 -0.45184,-0.07202 -0.87297,-0.04677 -1.28112,-0.04677 -0.10512,0.07201 -0.2239,0.16552 -0.21057,0.27063 0.0734,0.45356 0.14538,0.72282 0.17745,1.12928 l 0.26244,0.19862 c 0.94806,0.19077 2.10361,0.3945 3.05814,0.64398 0.1389,-0.02526 0.31466,-0.01195 0.40135,-0.14403 z m -9.96073,-2.5063 0.17064,0.22388 c 0.78118,0.36926 1.49819,0.65866 2.35956,0.90129 l 1.03166,0.26927 c 0.27745,0.25049 0.75592,0.45458 1.03986,0.09863 0.0133,-1.33438 -0.98524,-2.94485 -2.46501,-3.55674 -0.46788,-0.20238 -1.0849,-0.26927 -1.63709,-0.40918 -0.13855,0.12012 -0.5863,-0.13071 -0.72382,0.2068 0.0853,0.6689 0.34127,1.66882 0.2242,2.26605 z m -10.57943,-23.7157 c -0.27611,-0.15596 -2.67559,0.75866 -2.39301,0.50783 -0.57198,0.61052 0.36105,0.81598 -1.75584,1.61046 l -0.51329,-0.05188 c -0.0652,-0.06006 -0.24913,-0.15869 -0.4399,0.10376 -0.0198,0.32285 0.40134,0.27745 0.53204,0.67195 0.75593,1.70227 0.33582,3.02471 0.26245,4.78601 l 0.56002,1.44632 c 1.06375,1.27567 1.05862,1.45961 1.78109,2.15546 0.71839,1.01324 0.86922,1.09309 1.83436,1.92102 0.15869,0.13719 0.44638,0.24264 0.63851,0.08531 0.45322,-0.35458 0.47983,-0.59177 0.61191,-1.04498 0.22386,-1.68245 -0.79722,-2.84107 -2.02511,-3.75534 -0.86922,-0.74806 -1.70363,-1.91966 -1.51287,-3.07009 l 0.072,-0.07064 c 0.40235,0.32797 0.90232,0.52386 1.07158,0.93953 0.66513,1.48521 2.45307,2.1623 3.45267,3.45162 0.44023,0.77434 0.1696,2.11008 0,3.00353 0,-0.02559 1.31458,0.62624 0.95863,0.39587 0.62522,-0.26277 0.54534,-0.71052 0.84771,-1.2825 0.59347,-1.48657 0.5399,-2.83288 -0.36789,-4.12187 l -2.49674,-3.1182 c -0.0386,-1.58248 0.39313,-3.62876 -1.11834,-4.56317 z m 3.29394,15.0839 c -0.59857,-0.27576 -1.21696,-0.33582 -1.87973,-0.02526 -0.172,0.22387 -0.71701,0.41329 -0.49995,0.74773 0.48017,0.7839 1.29445,1.42789 1.7944,2.19711 l 0.23718,0.12525 c 1.01053,1.22107 2.61689,2.25445 4.13555,3.17554 l 0.91426,0.39997 c 0.20272,0.19725 0.66925,0.61191 0.84808,0.18393 0.0386,-1.59713 -0.63853,-3.30758 -2.16368,-4.43652 -0.92008,-0.68528 -1.32108,-0.55321 -2.14352,-0.60542 l -0.42797,-0.76376 c -0.0976,-0.37986 -0.43205,-0.76923 -0.81462,-0.99857 z m -8.40929,-9.11948 -0.0399,-1.13063 c -0.10409,-1.03166 -0.5771,-2.22235 -1.5504,-2.79399 -0.57845,0.13719 -0.36927,0.83441 -0.51327,1.30877 0.37607,1.02518 1.0907,1.87974 1.68894,2.79435 0.0867,0.05868 0.16417,0.09726 0.24948,0.05868 z m -13.80004,-39.29716 c -0.40133,-0.41466 -0.63067,-0.22388 -1.03985,-0.26383 -1.17056,0.32251 -1.8531,0.82248 -2.18107,2.14491 -0.43445,1.84083 -0.41566,3.86593 0,5.75214 l 0.18257,0.1454 c 0.82144,0.09076 2.05857,0.25595 2.4012,0.07199 0.33444,-0.18532 -0.36278,-3.49803 -0.36278,-3.49803 -0.0266,-0.6573 0.2959,-2.34079 0.5986,-3.20865 0.0601,-0.13206 0.73578,-0.80267 0.40133,-1.14393 z m 8.46766,2.04489 c -0.12388,-1.18491 -1.61012,-2.22339 -2.34079,-2.4343 -0.72931,-0.21055 -2.8981,-0.10374 -3.5233,0.1133 -0.63067,0.21739 -2.15718,3.19432 -1.97836,4.74062 0,1.2825 0.34776,3.30625 0.85968,3.47143 0.51327,0.15733 1.86778,0.07745 1.86778,0.07745 0.56516,0.04131 0.99993,-0.09759 1.49852,-0.15596 0.34776,-0.1389 0.10648,-0.57879 0.22388,-0.83474 0.1638,-0.65831 0.20407,-1.37566 0.61189,-2.0316 0.57062,-1.1064 1.6156,-1.76232 2.65682,-2.15172 0.22796,-0.21704 0.0973,-0.50646 0.12388,-0.79448 z m -1.66882,5.00204 c 0,0.23853 0.0133,0.3358 0.18906,0.41429 h 0.97979 c 0.87604,-0.03173 1.99304,-0.31465 2.80765,0.52659 0.46652,-0.0198 0.50644,-0.57165 0.63203,-1.00641 0.11057,-0.59723 0.0853,-0.97979 0.0853,-1.51697 -0.1976,-0.42795 -0.41328,-1.07977 -0.85454,-1.35585 -0.70405,-0.32797 -1.41459,-0.26245 -2.09167,0 -1.02007,0.60539 -1.76097,1.5719 -1.74765,2.93835 z m 20.06579,4.68157 c -1.30912,-4.54302 -1.93331,-6.88279 0.11194,-11.55788 0.0198,-0.17712 0.21705,-0.76239 0,-0.83577 -2.2623,0.45593 -2.86088,0.65183 -4.98463,0.8037 -1.95821,0.34126 -5.22042,-0.20374 -7.39469,-0.18532 -1.70363,-0.05869 -3.43388,-0.11842 -5.21499,-0.33444 -0.5334,0.27575 -0.11739,0.87434 -0.0798,1.26918 0.19726,0.61054 0.21706,0.92622 0.27574,1.64358 0.27745,0.29451 0.61873,0.13855 0.95319,0.27608 1.14529,0.17714 2.11691,1.19037 2.393,2.26092 0.36243,1.12381 -0.0307,2.37424 -0.55185,3.44448 -0.0973,0.31738 -0.53204,0.55867 -0.35457,0.87603 1.40775,2.63532 0.4143,5.31226 -0.0587,7.88135 -0.49347,1.82889 -1.24906,3.84853 -1.55176,5.77365 0.0652,0.19727 -0.19076,0.65833 0.24402,0.6904 l 0.15732,-0.03207 c 1.505,-1.82753 5.81869,-5.68697 7.43461,-6.94286 1.61286,-1.25554 5.78696,-3.68983 8.50248,-4.33892 0.2573,-0.2174 0.21739,-0.39623 0.11875,-0.69211 z"
       transform="matrix(0.53929,0,0,-0.53929,108.41455,29.185242)" />
    <path
       style="fill:#ffffff;fill-rule:evenodd"
       id="path32"
       d="m -117.37056,7.0325 c 0.27608,-0.36278 0.4614,-0.67847 0.23718,-1.01324 -0.51294,-0.03994 -0.59176,0.61053 -1.02484,0.82794 -0.71734,0.35457 -1.35451,-0.01879 -2.06503,-0.19727 -1.80124,-0.77606 -3.30762,-2.321 -5.05664,-3.12878 -0.21706,0 -0.41329,0.02013 -0.55184,0.17609 0.29589,0.29725 0.77605,0.35595 1.15043,0.59962 1.80226,1.18251 3.55163,3.04347 5.80574,3.38474 0.59721,0.04026 1.13163,-0.17711 1.505,-0.6491 z"
       transform="matrix(0.53929,0,0,-0.53929,108.41455,29.185242)" />
    <path
       style="fill:#ffffff;fill-rule:evenodd"
       id="path34"
       d="m -117.50775,3.97298 c -0.13857,0.44127 -0.1174,1.15181 -0.64945,1.25042 -0.11978,-0.27711 0,-0.57844 -0.11978,-0.83577 -0.16278,-0.19589 -0.44127,-0.43341 -0.75592,-0.35322 -2.1821,-0.13991 -3.80723,-2.0582 -5.66682,-3.05165 -0.63751,-0.35594 -1.34941,-0.55832 -2.02512,-0.73578 -0.0587,-0.09999 -0.0399,-0.23718 0.0587,-0.29588 2.06366,-0.21738 4.10175,-0.41463 6.14701,-0.63067 l 2.2756,0.2546 c 0.0652,0.29622 -0.29623,0.55353 -0.23753,0.89479 0.26278,0.92622 0.34263,1.93945 0.0867,2.81413 0.1761,0.47301 0.84807,0.11842 0.88663,0.68903 z m -1.59033,-3.51545 c -0.28292,-0.41566 -0.72385,-0.05459 -1.11051,-0.10646 -0.89447,0.10646 -2.40085,-0.10409 -3.38746,0.01979 -0.15052,0.08667 -0.25597,0.23617 -0.17065,0.37471 0.15052,0.25051 0.56516,0.26415 0.82247,0.45459 1.07706,0.66924 2.20906,1.31458 3.43799,1.60363 0.22421,0.03344 0.40816,-0.15186 0.44673,-0.30919 0.144,-0.57062 0.0546,-1.48488 -0.0386,-2.03707 z"
       transform="matrix(0.53929,0,0,-0.53929,108.41455,29.185242)" />
    <path
       style="fill:#ffffff;fill-rule:evenodd"
       id="path36"
       d="m -116.34947,-6.24231 c 0.0655,0.10513 0.15083,0.22252 0.24811,0.23036 0.12522,-0.04777 0.19725,-0.10647 0.21739,-0.34912 -0.0201,-0.38257 -0.11092,-0.78253 -0.21739,-1.21049 -0.11741,-0.47983 -0.24265,-0.97844 -0.24265,-1.46508 0,-0.21057 0.0252,-0.42796 0.0853,-0.63853 0.28256,-0.35457 0.73067,-0.44125 1.25725,-0.25595 0.0119,0.00648 0.90642,0.5184 0.90642,0.5184 0.77573,0.4614 1.50502,0.89992 2.8742,1.24939 0.0239,0.00648 0.0317,-0.00547 0.0372,-0.01228 0.028,-0.01979 0.0348,-0.07167 0.0348,-0.13719 0,-0.1133 -0.0348,-0.27576 -0.0935,-0.4027 -0.0519,-0.02527 -1.30778,-0.58357 -1.30778,-0.58357 -0.98524,-0.4348 -2.01283,-0.88254 -2.97282,-1.43473 -0.28256,-0.05186 -0.545,0.09864 -0.79584,0.25084 l -0.0652,0.03208 c -0.36139,0.49963 -0.47981,0.9798 -0.47981,1.46611 0,0.43477 0.0932,0.86784 0.19043,1.31459 0.0867,0.41328 0.18532,0.84123 0.20407,1.29581 0.0331,0.03207 0.1198,0.13206 0.1198,0.13206 z"
       transform="matrix(0.53929,0,0,-0.53929,108.41455,29.185242)" />
    <path
       style="fill:#ffffff;fill-rule:evenodd"
       id="path38"
       d="m -147.23976,-5.83585 c 0.71702,-1.46644 -0.0375,-2.8527 0,-4.37785 0.11842,-0.43478 0.97297,-0.49312 0.71702,-1.01323 -0.19589,-0.13719 -0.47983,-0.17714 -0.69722,-0.02014 -0.39314,0.25732 -0.53306,0.45493 -0.63032,0.91461 -0.10682,1.34122 0.96648,2.91276 0.0198,4.18196 -0.27576,0.27608 -0.67845,0.55184 -1.07161,0.57198 -0.85591,-0.15869 -1.28932,-1.07195 -1.58519,-1.74391 -0.45321,-1.77939 -0.57848,-3.66732 0.99309,-5.09485 0.91325,-0.53206 2.01965,-1.11051 2.08519,-2.2623 0.13171,-0.19589 0.40644,-0.38667 0.63031,-0.27609 0.2761,0.0215 0.31465,0.81597 0.70918,0.43478 l 0.11876,-0.26927 c -0.0986,-0.32147 -0.19589,-0.87468 -0.70919,-0.89345 -0.25593,-0.05972 -0.53851,0.07883 -0.74906,0.23481 -0.55867,0.57333 -0.12697,1.44767 -1.05864,1.82238 -1.54495,0.47847 -2.55954,2.10361 -2.71688,3.63012 -0.0973,1.46508 -0.0321,3.07009 1.23064,4.3577 0.49962,0.37473 1.14906,0.61976 1.78759,0.41466 0.35456,-0.06006 0.76922,-0.30784 0.92654,-0.61191 z"
       transform="matrix(0.53929,0,0,-0.53929,108.41455,29.185242)" />
    <path
       style="fill:#ffffff;fill-rule:evenodd"
       id="path40"
       d="m -166.61515,-16.55249 c -2.81925,-1.30775 -3.682,-4.67407 -3.72056,-4.81262 l -0.072,-0.30272 0.28804,-0.09862 c 0.11194,-0.03174 2.72882,-0.89448 5.93099,0.67879 3.22195,1.57702 3.88435,4.77236 3.91131,4.91092 l 0.0666,0.33478 -0.34264,0.05188 c -0.13071,0.02661 -3.28612,0.51974 -6.06168,-0.76241 z m 0.28255,-0.61053 c 2.05856,0.95965 4.41268,0.84772 5.30066,0.7624 -0.25082,-0.81462 -1.11188,-2.93939 -3.45299,-4.08981 -2.34626,-1.15076 -4.3659,-0.87468 -5.1017,-0.71735 0.27611,0.81598 1.18389,3.08339 3.25403,4.04476 z"
       transform="matrix(0.53929,0,0,-0.53929,108.41455,29.185242)" />
    <path
       style="fill:#ffffff;fill-rule:evenodd"
       id="path42"
       d="m -163.80239,-10.22052 c -2.82471,-1.27568 -3.86969,-4.60308 -3.91099,-4.74846 l -0.0976,-0.31465 0.31466,-0.09863 c 0.11057,-0.03174 2.72234,-0.81429 5.92962,0.71598 3.23561,1.55314 3.92601,4.63654 3.95262,4.76725 l 0.072,0.33581 -0.34127,0.06006 c -0.12524,0.02526 -3.13527,0.53853 -5.91903,-0.71736 z m 0.27609,-0.60645 c 2.0531,0.92794 4.29525,0.81054 5.15629,0.71839 -0.26927,-0.80232 -1.14498,-2.83257 -3.48339,-3.95125 -2.32882,-1.11187 -4.33517,-0.90233 -5.09756,-0.76377 0.32386,0.83442 1.35586,3.06461 3.42466,3.99663 z"
       transform="matrix(0.53929,0,0,-0.53929,108.41455,29.185242)" />
    <path
       style="fill:#ffffff;fill-rule:evenodd"
       id="path44"
       d="m -160.12552,-4.11891 c -2.83428,-1.24359 -4.06318,-4.54302 -4.10858,-4.68054 l -0.12662,-0.33719 0.34914,-0.09726 c 0.11192,-0.0348 2.7155,-0.73067 5.92448,0.76924 3.25266,1.51046 3.9632,4.48329 3.99767,4.615 l 0.072,0.3348 -0.33444,0.06518 c -0.12012,0.0215 -2.97966,0.56003 -5.77365,-0.66923 z m 0.26243,-0.61327 c 2.05173,0.90267 4.17547,0.77742 5.01127,0.67879 -0.27747,-0.77605 -1.17707,-2.72095 -3.51136,-3.80757 -2.30769,-1.07842 -4.2939,-0.92621 -5.08975,-0.80097 0.38257,0.84227 1.53301,3.02333 3.58984,3.92975 z"
       transform="matrix(0.53929,0,0,-0.53929,108.41455,29.185242)" />
    <path
       style="fill:#ffffff;fill-rule:evenodd"
       id="path46"
       d="m -156.48346,1.90932 c -2.83428,-1.21561 -4.24064,-4.47646 -4.29389,-4.61365 l -0.15733,-0.36278 0.38121,-0.09317 c 0.11057,-0.02661 2.70868,-0.65045 5.92961,0.81053 3.26869,1.4784 3.998,4.34575 4.0311,4.46962 l 0.0867,0.33617 -0.34126,0.07199 c -0.11331,0.02663 -2.82199,0.57847 -5.63612,-0.61871 z m 0.26243,-0.61702 c 2.03843,0.86648 4.05671,0.73578 4.85939,0.63852 -0.28939,-0.75728 -1.20265,-2.61823 -3.53833,-3.67005 -2.28071,-1.03848 -4.25259,-0.94668 -5.07368,-0.84123 0.43854,0.86104 1.70123,2.99808 3.75262,3.87276 z"
       transform="matrix(0.53929,0,0,-0.53929,108.41455,29.185242)" />
    <path
       style="fill:#ffffff;fill-rule:evenodd"
       id="path48"
       d="m -151.43366,7.93892 c -2.84109,-1.18251 -4.42459,-4.41129 -4.49148,-4.54985 l -0.18257,-0.3812 0.41328,-0.09317 c 0.10406,-0.01876 2.69571,-0.56411 5.93095,0.85556 3.27282,1.44802 4.03659,4.20757 4.06867,4.32735 l 0.0867,0.32796 -0.33479,0.08533 c -0.10648,0.02012 -2.66328,0.59858 -5.49074,-0.57198 z m 0.25597,-0.61704 c 2.03159,0.8409 3.93111,0.70372 4.70854,0.59725 -0.30272,-0.74262 -1.22926,-2.50495 -3.56494,-3.53696 -2.27561,-0.99959 -4.22052,-0.96101 -5.06177,-0.87434 0.50681,0.87434 1.87293,2.96463 3.91817,3.81405 z"
       transform="matrix(0.53929,0,0,-0.53929,108.41455,29.185242)" />
    <path
       style="fill:#ffffff;fill-rule:evenodd"
       id="path50"
       d="m -145.86409,13.75795 c -2.84894,-1.15179 -4.61775,-4.35259 -4.68976,-4.49113 l -0.21468,-0.39998 0.44538,-0.08532 c 0.11331,-0.02151 2.69673,-0.48803 5.932,0.90642 3.2943,1.40775 4.08059,4.0567 4.11541,4.16727 l 0.0918,0.33719 -0.33581,0.07882 c -0.0986,0.02526 -2.51142,0.6317 -5.34433,-0.51327 z m 0.24913,-0.61839 c 2.01043,0.8078 3.80758,0.66378 4.55667,0.55184 -0.31601,-0.71598 -1.2692,-2.39982 -3.59667,-3.39294 -2.24899,-0.9651 -4.17512,-0.97294 -5.04298,-0.91289 0.56514,0.88901 2.04489,2.92472 4.08298,3.75399 z"
       transform="matrix(0.53929,0,0,-0.53929,108.41455,29.185242)" />
    <path
       style="fill:#ffffff;fill-rule:evenodd"
       id="path52"
       d="m -139.92116,19.25311 c -2.85269,-1.11049 -4.80034,-4.28465 -4.87918,-4.42323 l -0.25595,-0.42146 0.48665,-0.07849 c 0.11194,-0.01331 2.69024,-0.40679 5.93098,0.94635 3.30591,1.37463 4.11506,3.91815 4.14714,4.02325 l 0.10683,0.32933 -0.32797,0.09215 c -0.0935,0.02525 -2.36229,0.65182 -5.2085,-0.4679 z m 0.24263,-0.61735 c 1.99303,0.77571 3.68883,0.63067 4.4113,0.51976 -0.33479,-0.69722 -1.30127,-2.29404 -3.62875,-3.26189 -2.21418,-0.92517 -4.12871,-0.9866 -5.02182,-0.94668 0.63716,0.9013 2.21415,2.89433 4.23927,3.68881 z"
       transform="matrix(0.53929,0,0,-0.53929,108.41455,29.185242)" />
    <path
       style="fill:#ffffff;fill-rule:evenodd"
       id="path54"
       d="m -133.74108,24.32954 c -2.86053,-1.08387 -4.98291,-4.22734 -5.06822,-4.3594 l -0.30408,-0.45184 0.54126,-0.06655 c 0.10408,-0.01332 2.67423,-0.32285 5.92962,0.99309 3.3141,1.33984 4.15533,3.77379 4.18742,3.8779 l 0.10648,0.31736 -0.32389,0.10375 c -0.0839,0.02696 -2.20086,0.67879 -5.06859,-0.41431 z m 0.23616,-0.61735 c 1.97974,0.7491 3.57007,0.59723 4.26183,0.47983 -0.34775,-0.6771 -1.3412,-2.19677 -3.6499,-3.13016 -2.20224,-0.88764 -4.08879,-0.9931 -5.00305,-0.97841 0.7037,0.91324 2.37286,2.85951 4.39112,3.62874 z"
       transform="matrix(0.53929,0,0,-0.53929,108.41455,29.185242)" />
    <path
       style="fill:#ffffff;fill-rule:evenodd"
       id="path56"
       d="m -127.46199,28.8794 c -2.86771,-1.05863 -5.16039,-4.17411 -5.26038,-4.30619 l -0.3481,-0.46788 0.5853,-0.0587 c 0.10545,-0.0133 2.6701,-0.24229 5.9296,1.0385 3.33424,1.30911 4.19389,3.63147 4.22871,3.72874 l 0.11056,0.31601 -0.31464,0.1041 c -0.0785,0.03445 -2.05173,0.7037 -4.93105,-0.35458 z m 0.22932,-0.6242 c 1.9596,0.71599 3.45267,0.57198 4.10997,0.44673 -0.36277,-0.65046 -1.36782,-2.09028 -3.67552,-2.99671 -2.1756,-0.85454 -4.03658,-0.99993 -4.97643,-1.00643 0.76922,0.92111 2.53701,2.81415 4.54198,3.55641 z"
       transform="matrix(0.53929,0,0,-0.53929,108.41455,29.185242)" />
    <path
       style="fill:#ffffff;fill-rule:evenodd"
       id="path58"
       d="m -171.12508,-10.17513 c -0.0863,-0.10409 -2.04489,-2.64897 -2.24864,-5.71221 -0.20407,-3.12366 2.34625,-5.50438 2.45955,-5.60302 l 0.22388,-0.21057 0.22932,0.21057 c 0.0853,0.07201 2.10361,1.97153 2.25412,5.54978 0.16551,3.60178 -2.33805,5.72688 -2.44489,5.81733 l -0.26243,0.2174 z m -1.59306,-6.06031 c 0,0.09726 0.008,0.19624 0.0147,0.29997 0.144,2.29712 1.38658,4.31538 1.88655,5.04332 0.57982,-0.59723 1.95412,-2.26773 1.95412,-4.73276 0,-0.09179 0,-0.19043 -0.006,-0.28906 -0.12011,-2.63155 -1.32788,-4.27409 -1.8292,-4.84607 -0.56516,0.60406 -2.01967,2.36638 -2.01967,4.5246 z"
       transform="matrix(0.53929,0,0,-0.53929,108.41455,29.185242)" />
    <path
       style="fill:#ffffff;fill-rule:evenodd"
       id="path60"
       d="m -167.14823,-3.31113 c -0.0655,-0.07199 -1.66233,-1.83432 -2.34114,-4.35905 -0.0904,-0.34812 -0.16244,-0.70917 -0.21055,-1.09038 -0.36652,-3.02504 1.81694,-5.50438 1.91453,-5.60846 l 0.21057,-0.24402 0.25049,0.2092 c 0.0908,0.07338 2.149,1.86267 2.57013,5.34058 0.42011,3.50999 -1.82103,5.68014 -1.92103,5.76546 l -0.24228,0.23751 z m -1.92511,-6.13333 c 0,0.19725 0.012,0.3945 0.0386,0.59722 0.0389,0.34913 0.10544,0.68391 0.19077,1.00096 0.48665,1.81317 1.49989,3.22741 1.95311,3.79939 0.47983,-0.56516 1.51968,-2.05174 1.51968,-4.16864 0,-0.24266 -0.0133,-0.50645 -0.0481,-0.76924 -0.30136,-2.53156 -1.56372,-4.10175 -2.0903,-4.6669 -0.47334,0.62384 -1.56371,2.26605 -1.56371,4.20721 z"
       transform="matrix(0.53929,0,0,-0.53929,108.41455,29.185242)" />
    <path
       style="fill:#ffffff;fill-rule:evenodd"
       id="path62"
       d="m -162.6837,3.12526 c -0.0734,-0.06552 -1.74903,-1.62241 -2.59708,-4.13518 -0.10376,-0.32147 -0.19725,-0.66412 -0.27062,-1.05725 -0.52387,-2.92744 1.29716,-5.49757 1.36918,-5.60985 l 0.20408,-0.2812 0.27574,0.21603 c 0.0853,0.07201 2.19712,1.75447 2.87284,5.12693 0.68391,3.41407 -1.30094,5.62996 -1.38626,5.72176 l -0.22386,0.24264 z m -2.28754,-6.27086 c 0,0.31465 0.0266,0.64363 0.0853,0.96513 0.0597,0.35593 0.13855,0.66513 0.23581,0.95453 0.60542,1.78757 1.67838,3.07656 2.16504,3.59529 0.37984,-0.53204 1.12894,-1.82103 1.12894,-3.59018 0,-0.40098 -0.0386,-0.82109 -0.13175,-1.26748 -0.48527,-2.42644 -1.78656,-3.91951 -2.3517,-4.4792 -0.37573,0.63169 -1.13165,2.11828 -1.13165,3.82191 z"
       transform="matrix(0.53929,0,0,-0.53929,108.41455,29.185242)" />
    <path
       style="fill:#ffffff;fill-rule:evenodd"
       id="path64"
       d="m -157.77927,9.14291 c -0.0775,-0.05868 -1.82649,-1.42105 -2.85271,-3.91404 -0.11876,-0.28667 -0.22421,-0.62384 -0.31465,-1.01052 -0.69209,-2.82879 0.7491,-5.49752 0.81429,-5.60844 l 0.1761,-0.32933 0.31056,0.22285 c 0.0921,0.06108 2.24214,1.64356 3.18201,4.90441 0.94668,3.3141 -0.77571,5.58288 -0.84772,5.67639 l -0.20407,0.26243 z m -2.68104,-6.5043 c 0,0.46139 0.0454,0.94771 0.15596,1.42107 0.0853,0.35457 0.18531,0.65864 0.28939,0.91972 0.72386,1.74902 1.84902,2.91959 2.36913,3.3943 0.28258,-0.48666 0.78628,-1.55995 0.78628,-2.99945 0,-0.54535 -0.0652,-1.14258 -0.24775,-1.78111 -0.67197,-2.32098 -2.0118,-3.74064 -2.61688,-4.28737 -0.26279,0.59859 -0.73613,1.87323 -0.73613,3.33284 z"
       transform="matrix(0.53929,0,0,-0.53929,108.41455,29.185242)" />
    <path
       style="fill:#ffffff;fill-rule:evenodd"
       id="path66"
       d="m -152.46566,14.74457 c -0.0785,-0.04811 -1.89953,-1.21048 -3.10354,-3.68337 -0.13855,-0.27607 -0.26242,-0.5839 -0.38255,-0.97978 -0.84772,-2.72778 0.22421,-5.48323 0.27607,-5.60062 l 0.15188,-0.37574 0.34127,0.22387 c 0.0935,0.06552 2.28244,1.53847 3.47962,4.69387 1.21562,3.21684 -0.24402,5.52452 -0.30954,5.62178 l -0.17711,0.27574 z m -3.138,-6.89098 c 0,0.65048 0.0799,1.34769 0.29042,2.03024 0.1133,0.35595 0.21738,0.63886 0.34127,0.88253 0.84125,1.72923 2.02649,2.78104 2.56502,3.20214 0.20407,-0.4211 0.51873,-1.25552 0.51873,-2.38069 0,-0.68255 -0.11741,-1.46646 -0.43888,-2.32099 -0.83577,-2.21555 -2.22339,-3.56357 -2.86738,-4.10994 -0.1638,0.54637 -0.40918,1.53979 -0.40918,2.69671 z"
       transform="matrix(0.53929,0,0,-0.53929,108.41455,29.185242)" />
    <path
       style="fill:#ffffff;fill-rule:evenodd"
       id="path68"
       d="m -146.7787,19.93805 c -0.0785,-0.03993 -1.96503,-0.99959 -3.36596,-3.45265 -0.1454,-0.26926 -0.28257,-0.56514 -0.4266,-0.93987 -1.01459,-2.62881 -0.30406,-5.47093 -0.27063,-5.58833 l 0.11194,-0.43445 0.38257,0.2372 c 0.0894,0.05324 2.32508,1.42787 3.77925,4.47783 1.47975,3.11036 0.28291,5.4566 0.22934,5.55523 l -0.15187,0.29044 z m -3.66185,-7.53461 c 0,0.88116 0.11058,1.91966 0.48666,2.90628 0.13855,0.34127 0.25595,0.61054 0.39314,0.84772 0.96648,1.69032 2.19678,2.62883 2.76876,2.99808 0.12522,-0.34777 0.29724,-0.9542 0.29724,-1.78896 0,-0.78766 -0.1587,-1.76096 -0.67845,-2.8462 -1.00506,-2.11692 -2.43293,-3.38576 -3.11686,-3.9045 -0.072,0.40645 -0.15049,1.03848 -0.15049,1.78758 z"
       transform="matrix(0.53929,0,0,-0.53929,108.41455,29.185242)" />
    <path
       style="fill:#ffffff;fill-rule:evenodd"
       id="path70"
       d="m -140.74227,24.73055 c -0.0867,-0.03176 -2.03158,-0.7945 -3.62329,-3.22196 -0.16414,-0.25597 -0.32284,-0.55183 -0.48664,-0.89993 -1.16375,-2.53157 -0.82111,-5.45763 -0.8078,-5.57503 l 0.0583,-0.48631 0.43343,0.23582 c 0.0986,0.05186 2.36775,1.31424 4.07786,4.25908 1.74903,3.01309 0.81463,5.40064 0.77468,5.4979 l -0.12523,0.31056 z m -4.30719,-8.54785 c 0,1.03849 0.13036,2.69024 0.80233,4.15022 0.15083,0.32249 0.29451,0.58493 0.43991,0.80915 1.09205,1.66233 2.37285,2.48343 2.96495,2.8073 0.0666,-0.27063 0.13174,-0.66513 0.13174,-1.19035 0,-0.87433 -0.19726,-2.06505 -0.95282,-3.37929 -1.1774,-2.01964 -2.64385,-3.21036 -3.3728,-3.71543 -0.007,0.1454 -0.0133,0.31602 -0.0133,0.5184 z"
       transform="matrix(0.53929,0,0,-0.53929,108.41455,29.185242)" />
    <path
       style="fill:#ffffff;fill-rule:evenodd"
       id="path72"
       d="m -134.38469,29.12306 c -0.0853,-0.01979 -2.09168,-0.59176 -3.87959,-2.99261 -0.18396,-0.24265 -0.36927,-0.52523 -0.53991,-0.8467 -1.32756,-2.43395 -1.34768,-5.44432 -1.34768,-5.57605 l 0.007,-0.53204 0.47301,0.23581 c 0.10681,0.05223 2.42099,1.21731 4.38603,4.05672 1.99814,2.89944 1.33438,5.32588 1.30774,5.42451 l -0.0918,0.32115 z m -3.83284,-4.16182 c 0.15596,0.29589 0.32149,0.54536 0.48665,0.77605 1.22244,1.63026 2.55681,2.34727 3.17418,2.61006 0.0133,-0.15869 0.0331,-0.34264 0.0331,-0.58528 0,-0.89449 -0.21705,-2.32748 -1.31423,-3.91917 -1.33438,-1.91967 -2.84076,-3.03699 -3.61681,-3.53148 0.072,0.97978 0.32285,2.98613 1.23711,4.64982 z"
       transform="matrix(0.53929,0,0,-0.53929,108.41455,29.185242)" />
    <path
       style="fill:#ffffff;fill-rule:evenodd"
       id="path74"
       d="m -127.7647,33.1279 c -0.0853,-0.01332 -2.13705,-0.39587 -4.13656,-2.74896 -1.97699,-2.34761 -2.44489,-6.21354 -2.46364,-6.37735 l -0.0652,-0.5788 0.5317,0.23753 c 0.0986,0.04505 2.45854,1.10367 4.67407,3.8458 2.2623,2.78615 1.86095,5.25253 1.84766,5.35251 l -0.0587,0.32797 z m -3.62329,-3.1834 c 1.35589,1.59682 2.73564,2.21007 3.37416,2.42066 0.006,-0.01332 0.006,-0.02116 0.006,-0.03993 0,-0.77709 -0.20374,-2.51143 -1.73572,-4.40447 -1.48624,-1.83571 -3.04483,-2.87419 -3.85262,-3.34755 0.21738,1.19072 0.82111,3.73422 2.20769,5.37129 z"
       transform="matrix(0.53929,0,0,-0.53929,108.41455,29.185242)" />
    <path
       style="fill:#ffffff;fill-rule:evenodd"
       id="path76"
       d="m -191.17722,0.00298 c 0,-16.15447 8.73555,-31.69022 22.80655,-40.56057 l 0.58528,-0.36141 0.42114,0.54672 c 0.11739,0.15187 0.16381,0.30133 0.16381,0.43444 0,0.34809 -0.29589,0.61736 -0.46106,0.77332 l -0.81462,0.78255 c -2.90593,3.29396 -3.68198,6.41865 -3.68198,8.81847 0,2.6568 0.95453,4.43108 1.03302,4.56315 l 0.25595,0.47301 -0.35592,0.39997 c -5.94942,6.63366 -9.08503,14.97196 -9.08503,24.13035 0,20.14599 16.38381,36.52944 36.52945,36.52944 5.60166,0 10.97295,-1.22892 15.96918,-3.66185 l 0.52145,-0.25595 7.336,8.37722 -0.8078,0.45184 c -7.0029,3.89937 -14.9641,5.95624 -23.01883,5.95624 -26.14044,0 -47.39659,-21.26299 -47.39659,-47.39694 z m 1.49682,0 c 0,25.30636 20.59374,45.89329 45.89977,45.89329 7.48139,0 14.8788,-1.85585 21.44693,-5.33238 -0.96647,-1.09993 -4.7604,-5.43921 -5.35217,-6.10162 -5.0498,2.36639 -10.45966,3.57653 -16.09476,3.57653 -20.97357,0 -38.04231,-17.06225 -38.04231,-38.03582 0,-9.35701 3.17007,-17.89667 9.15976,-24.74736 -0.34947,-0.79586 -0.96138,-2.53841 -0.96138,-4.84607 0,-1.90603 0.44127,-4.1939 1.78896,-6.62785 -11.10466,8.84373 -17.8448,22.29737 -17.8448,36.22128 z"
       transform="matrix(0.53929,0,0,-0.53929,108.41455,29.185242)" />
    <path
       style="fill:#ffffff;fill-rule:evenodd"
       id="path78"
       d="m -127.15279,34.21826 c -5.20714,2.53838 -10.79684,3.82054 -16.62784,3.82054 -20.97357,0 -38.04368,-17.06225 -38.04368,-38.03582 0,-9.52628 3.27656,-18.22463 9.47543,-25.1354 l 0.65218,-0.72247 2.89262,4.36453 -0.15187,0.17849 c -0.26279,0.03073 -0.47334,0.072 -0.63068,0.10409 0.0386,0.12012 0.0973,0.27608 0.16278,0.44774 -0.22146,0.26961 -0.45182,0.54535 -0.66922,0.82146 -0.23069,-0.37337 -0.45321,-0.644 -0.6054,-0.82146 -0.56516,0.60406 -2.01967,2.36638 -2.01967,4.5246 0,0.06552 0.007,0.13752 0.007,0.20271 -2.70084,4.76041 -4.0765,10.1317 -4.0765,16.03571 0,18.19834 14.80644,33.0048 33.00717,33.0048 4.46352,0 8.77073,-0.873 12.82709,-2.59027 0.43477,0.45458 0.86136,0.81052 1.2627,1.08525 -4.43792,1.98621 -9.1717,3.01138 -14.08979,3.01138 -19.03514,0 -34.51765,-15.48251 -34.51765,-34.51116 0,-8.25026 2.57695,-15.50367 7.61858,-21.5906 -0.28805,-0.44126 -0.70235,-1.06648 -1.1692,-1.77565 -5.52282,6.50807 -8.46118,14.5505 -8.46118,23.36625 0,20.14599 16.38381,36.52944 36.52945,36.52944 5.35253,0 10.4863,-1.13711 15.29346,-3.35914 -0.20407,-0.43478 -0.39589,-0.86273 -0.59996,-1.29068 0.44809,0.25218 0.81735,0.40407 1.07193,0.48256 0.008,-0.01332 0.008,-0.02116 0.008,-0.03993 0,-0.56652 -0.11196,-1.63845 -0.76378,-2.91277 l 0.17064,-0.08531 2.11008,4.57646 z"
       transform="matrix(0.53929,0,0,-0.53929,108.41455,29.185242)" />
    <path
       style="fill:#ffffff;fill-rule:evenodd"
       id="path80"
       d="m -127.49408,41.68086 -3.63796,-4.60307 c 0.33719,-0.11058 0.66514,-0.22797 0.99311,-0.35459 l 3.60998,4.56316 c -0.31602,0.13718 -0.63715,0.26788 -0.96513,0.3945 z"
       transform="matrix(0.53929,0,0,-0.53929,108.41455,29.185242)" />
    <path
       style="fill:#ffffff;fill-rule:evenodd"
       id="path82"
       d="m -134.60892,43.79778 -2.1234,-5.25354 c 0.33582,-0.06008 0.67062,-0.12526 0.99857,-0.19726 l 2.11828,5.23511 c -0.33615,0.07714 -0.66549,0.14504 -0.99345,0.21569 z"
       transform="matrix(0.53929,0,0,-0.53929,108.41455,29.185242)" />
    <path
       style="fill:#ffffff;fill-rule:evenodd"
       id="path84"
       d="m -143.07657,44.74448 -0.5201,-5.56958 c 0.33478,0 0.67195,-0.0055 0.99993,-0.01091 l 0.52386,5.55386 c -0.33446,0.0065 -0.66925,0.01981 -1.00369,0.02663 z"
       transform="matrix(0.53929,0,0,-0.53929,108.41455,29.185242)" />
    <path
       style="fill:#ffffff;fill-rule:evenodd"
       id="path86"
       d="m -151.3299,44.1138 1.05863,-5.47095 c 0.33069,0.05188 0.65864,0.10648 0.99308,0.15187 l -1.0586,5.47641 c -0.33446,-0.04676 -0.66241,-0.09863 -0.99311,-0.15733 z"
       transform="matrix(0.53929,0,0,-0.53929,108.41455,29.185242)" />
    <path
       style="fill:#ffffff;fill-rule:evenodd"
       id="path88"
       d="m -159.32968,41.97026 2.50496,-5.02318 c 0.31465,0.11192 0.63168,0.21602 0.95315,0.32285 l -2.51176,5.03479 c -0.31464,-0.11194 -0.63169,-0.22252 -0.94635,-0.33446 z"
       transform="matrix(0.53929,0,0,-0.53929,108.41455,29.185242)" />
    <path
       style="fill:#ffffff;fill-rule:evenodd"
       id="path90"
       d="m -166.92435,38.29477 3.73521,-4.26694 c 0.29488,0.17064 0.59076,0.3358 0.89314,0.49962 l -3.75402,4.2874 c -0.29451,-0.172 -0.58493,-0.34808 -0.87433,-0.52008 z"
       transform="matrix(0.53929,0,0,-0.53929,108.41455,29.185242)" />
    <path
       style="fill:#ffffff;fill-rule:evenodd"
       id="path92"
       d="m -173.8218,33.14667 4.71502,-3.27417 c 0.26277,0.22387 0.53202,0.44125 0.80265,0.66513 l -4.74845,3.29397 c -0.2546,-0.22387 -0.51874,-0.45594 -0.76922,-0.68493 z"
       transform="matrix(0.53929,0,0,-0.53929,108.41455,29.185242)" />
    <path
       style="fill:#ffffff;fill-rule:evenodd"
       id="path94"
       d="m -179.69272,26.68364 5.41907,-2.11043 c 0.22115,0.27747 0.44535,0.54537 0.66923,0.80951 l -5.45625,2.13022 c -0.21092,-0.27608 -0.42148,-0.55319 -0.63205,-0.8293 z"
       transform="matrix(0.53929,0,0,-0.53929,108.41455,29.185242)" />
    <path
       style="fill:#ffffff;fill-rule:evenodd"
       id="path96"
       d="m -184.2214,19.15552 5.82961,-0.81427 c 0.16551,0.32113 0.33751,0.63032 0.51328,0.93849 l -5.88423,0.82246 c -0.15732,-0.31465 -0.31601,-0.63203 -0.45866,-0.94668 z"
       transform="matrix(0.53929,0,0,-0.53929,108.41455,29.185242)" />
    <path
       style="fill:#ffffff;fill-rule:evenodd"
       id="path98"
       d="m -187.19423,10.89842 5.94327,0.57062 c 0.11329,0.34264 0.22386,0.69176 0.33581,1.03304 l -6.00299,-0.57163 c -0.10001,-0.34264 -0.18942,-0.68393 -0.27609,-1.03203 z"
       transform="matrix(0.53929,0,0,-0.53929,108.41455,29.185242)" />
    <path
       style="fill:#ffffff;fill-rule:evenodd"
       id="path100"
       d="m -188.48322,2.25195 5.75249,1.99713 c 0.0413,0.36925 0.0867,0.73852 0.13173,1.1064 l -5.8187,-2.02511 c -0.0256,-0.35457 -0.0454,-0.71701 -0.0655,-1.07842 z"
       transform="matrix(0.53929,0,0,-0.53929,108.41455,29.185242)" />
    <path
       style="fill:#ffffff;fill-rule:evenodd"
       id="path102"
       d="m -188.03511,-6.48495 5.19348,3.41135 c -0.0266,0.37984 -0.0519,0.76243 -0.072,1.14907 l -5.28017,-3.46357 c 0.0519,-0.3679 0.1,-0.73032 0.15871,-1.09685 z"
       transform="matrix(0.53929,0,0,-0.53929,108.41455,29.185242)" />
    <path
       style="fill:#ffffff;fill-rule:evenodd"
       id="path104"
       d="m -185.81958,-15.03416 4.21368,4.64164 c -0.10374,0.38939 -0.19725,0.78253 -0.28905,1.17194 l -4.30584,-4.74199 c 0.12389,-0.36105 0.24913,-0.71701 0.38121,-1.07159 z"
       transform="matrix(0.53929,0,0,-0.53929,108.41455,29.185242)" />
    <path
       style="fill:#ffffff;fill-rule:evenodd"
       id="path106"
       d="m -181.85503,-23.19945 2.98341,5.67366 c -0.18258,0.36925 -0.37335,0.73578 -0.54501,1.11185 l -3.03834,-5.78047 c 0.19727,-0.33444 0.39587,-0.67708 0.59994,-1.00504 z"
       transform="matrix(0.53929,0,0,-0.53929,108.41455,29.185242)" />
    <path
       style="fill:#ffffff;fill-rule:evenodd"
       id="path108"
       d="m -176.77313,-30.0034 1.59819,6.56675 c -0.26381,0.34914 -0.5266,0.70371 -0.77573,1.05829 l -1.62377,-6.71214 c 0.26243,-0.30919 0.53204,-0.61053 0.80131,-0.9129 z"
       transform="matrix(0.53929,0,0,-0.53929,108.41455,29.185242)" />
    <path
       style="fill:#ffffff;fill-rule:evenodd"
       id="path110"
       d="m -128.23804,28.9927 c 0.13753,-0.0867 0.2761,-0.17883 0.40679,-0.272 0.12661,0.05461 0.24402,0.11331 0.36926,0.1587 0.14401,0.05187 0.28906,0.09999 0.43445,0.14367 -0.31056,0.20407 -0.5986,0.43479 -0.8757,0.67879 -0.0908,-0.2307 -0.21058,-0.46788 -0.3348,-0.70916 z"
       transform="matrix(0.53929,0,0,-0.53929,108.41455,29.185242)" />
    <symbol
       id="font_0_7">
      <path
         id="path112"
         d="M 0.19140625,0.7109375 H 0 V 0 H 0.14648438 V 0.19433594 L 0.13183594,0.5292969 0.3232422,0 H 0.42382813 L 0.61572268,0.52978518 0.6010742,0.19433594 V 0 H 0.7480469 V 0.7109375 H 0.55566409 L 0.37402345,0.1953125 Z" />
    </symbol>
    <symbol
       id="font_0_1">
      <path
         id="path115"
         d="M 0.46142579,0.14648438 0.5107422,0 H 0.6665039 L 0.40039063,0.7109375 H 0.26464845 L 0,0 h 0.15576172 l 0.0488281,0.14648438 H 0.46142579 M 0.24414063,0.26513673 0.33251954,0.53125 0.421875,0.26513673 Z" />
    </symbol>
    <symbol
       id="font_0_d">
      <path
         id="path118"
         d="M 0.3071289,0.4658203 0.17382813,0.7109375 H 0.00537109 L 0.21240235,0.35839845 0,0 H 0.17041016 L 0.3071289,0.24902344 0.44384767,0 H 0.6142578 L 0.40185548,0.35839845 0.6088867,0.7109375 h -0.168457 z" />
    </symbol>
    <symbol
       id="font_0_9">
      <path
         id="path121"
         d="m 0.14648438,0.25048829 h 0.12841797 c 0.0839844,0 0.14990235,0.0200195 0.19775391,0.0600586 0.0478515,0.0400391 0.0717773,0.0952148 0.0717773,0.16503907 0,0.0458984 -0.0112305,0.0864258 -0.0327148,0.12255861 -0.0219727,0.0361328 -0.0532227,0.0639648 -0.09375,0.083496 -0.0405274,0.0195313 -0.0874024,0.0292969 -0.140625,0.0292969 H 0 V 0 h 0.14648438 v 0.25048829 m 0,0.11865234 v 0.22314455 h 0.13427735 c 0.0361328,-9.7658e-4 0.0644531,-0.0117188 0.0849609,-0.0332031 0.0205078,-0.0214844 0.0307617,-0.0498047 0.0307617,-0.0844727 0,-0.0341797 -0.0102539,-0.0600586 -0.0307617,-0.078125 -0.0205078,-0.0185547 -0.0498047,-0.0273438 -0.0883789,-0.0273438 z" />
    </symbol>
    <symbol
       id="font_0_6">
      <path
         id="path124"
         d="M 0.14648438,0.11767578 V 0.7109375 H 0 V 0 h 0.45751954 v 0.11767578 z" />
    </symbol>
    <symbol
       id="font_0_8">
      <path
         id="path127"
         d="M 0.578125,0 V 0.7109375 H 0.4321289 v -0.46875 l -0.28564452,0.46875 H 0 V 0 H 0.14648438 V 0.46777345 L 0.43164063,0 Z" />
    </symbol>
    <symbol
       id="font_0_2">
      <path
         id="path130"
         d="M 0.57958987,0.24658203 H 0.43310548 C 0.4296875,0.203125 0.4169922,0.17089844 0.39453126,0.15039063 0.3720703,0.12988281 0.3383789,0.11962891 0.29345704,0.11962891 c -0.050293,0 -0.0869141,0.0175781 -0.11035157,0.0532226 -0.0234375,0.0351563 -0.034668,0.0913086 -0.034668,0.16845704 v 0.0537109 c 4.8828e-4,0.0732422 0.0126953,0.12744142 0.0371094,0.16259766 0.0244141,0.0351563 0.0610352,0.0527344 0.10986329,0.0527344 0.0449219,0 0.078125,-0.0107422 0.10009763,-0.03125 0.0219727,-0.0205078 0.034668,-0.053711 0.0385742,-0.0996094 H 0.5805664 c -0.007813,0.0791016 -0.0371093,0.14111329 -0.0869141,0.1850586 -0.050293,0.0439453 -0.11621095,0.065918 -0.19824218,0.065918 -0.0595703,0 -0.11132814,-0.0141602 -0.15625001,-0.0419922 C 0.09423828,0.66064456 0.06005859,0.62060549 0.03613281,0.56884768 0.01171875,0.51660159 0,0.45654298 0,0.3881836 V 0.3447266 C 0,0.23730469 0.02587891,0.15332031 0.078125,0.09179688 0.1303711,0.03027344 0.20214844,0 0.29345704,0 c 0.0830078,0 0.15039063,0.02197266 0.20117186,0.06591797 0.0507813,0.04394531 0.0791016,0.10400391 0.084961,0.18066406 z" />
    </symbol>
    <symbol
       id="font_0_5">
      <path
         id="path133"
         d="M 0.22265625,0.28515626 0.40527345,0 H 0.57958987 L 0.31982423,0.39501954 0.5722656,0.7109375 H 0.39208985 L 0.2109375,0.47705079 0.14648438,0.38867188 V 0.7109375 H 0 V 0 h 0.14648438 v 0.203125 z" />
    </symbol>
    <symbol
       id="font_0_4">
      <path
         id="path136"
         d="M 0.14648438,0 V 0.7109375 H 0 V 0 Z" />
    </symbol>
    <symbol
       id="font_0_a">
      <path
         id="path139"
         d="m 0.3984375,0.19628906 c 0,-0.0253906 -0.009766,-0.0454102 -0.0292969,-0.0595703 -0.0195313,-0.0141601 -0.046875,-0.0209961 -0.081543,-0.0209961 -0.09375,0 -0.14062501,0.0390625 -0.14062501,0.11767578 H 0 C 0,0.1875 0.01171875,0.14697266 0.03515625,0.11230469 0.05859375,0.07714844 0.09326172,0.04980469 0.1381836,0.02978516 0.18310547,0.00976563 0.23291016,0 0.28759767,0 c 0.0786133,0 0.14111328,0.01708984 0.18798828,0.05224609 0.0463867,0.03515626 0.0698242,0.0834961 0.0698242,0.14501954 0,0.0551758 -0.019043,0.1015625 -0.0571289,0.13867187 -0.038086,0.0371094 -0.0991211,0.0678711 -0.18212891,0.0932617 -0.0454102,0.0136719 -0.0795899,0.0283203 -0.10302735,0.0439453 -0.0234375,0.015625 -0.034668,0.034668 -0.034668,0.0581055 0,0.0244141 0.009766,0.0444336 0.0297852,0.0595703 0.0195313,0.0151368 0.0473633,0.0229493 0.0834961,0.0229493 0.0371094,0 0.065918,-0.009277 0.0864258,-0.0273438 0.0205078,-0.0180664 0.0307617,-0.043457 0.0307617,-0.0756836 h 0.14648439 c 0,0.0424805 -0.0112305,0.0805664 -0.0332031,0.1142578 -0.0219727,0.0332031 -0.0527344,0.0590821 -0.0922852,0.0776367 -0.0400391,0.0185547 -0.0849609,0.0278321 -0.13574218,0.0278321 -0.0507813,0 -0.0961914,-0.008789 -0.13671876,-0.0253907 C 0.1069336,0.6879883 0.0756836,0.6645508 0.05419922,0.63427737 0.03271484,0.6040039 0.02197266,0.5698242 0.02197266,0.5317383 c 0,-0.0742188 0.04003906,-0.13281251 0.12109374,-0.17626954 0.0292969,-0.0161133 0.0698242,-0.0322266 0.12060548,-0.0488281 0.0507813,-0.0166016 0.0859375,-0.0322266 0.10546875,-0.046875 0.0195313,-0.0146484 0.0292969,-0.0361328 0.0292969,-0.0634766 z" />
    </symbol>
    <symbol
       id="font_0_b">
      <path
         id="path142"
         d="M 0.57910159,0.59228518 V 0.7109375 H 0 V 0.59228518 H 0.21484375 V 0 h 0.14648438 v 0.59228518 z" />
    </symbol>
    <symbol
       id="font_0_c">
      <path
         id="path145"
         d="M 0.5449219,0.7207031 H 0.39794923 V 0.2475586 c -0.001465,-0.0869141 -0.043457,-0.12988282 -0.12548828,-0.12988282 -0.0395508,0 -0.0703125,0.0102539 -0.0927734,0.0317383 -0.0224609,0.0214844 -0.0332031,0.0551758 -0.0332031,0.10205079 V 0.7207031 H 0 V 0.24707031 C 9.765625e-4,0.16992188 0.02587891,0.10986328 0.07470703,0.06591797 0.12353516,0.02197266 0.18945313,0 0.27246095,0 0.3564453,0 0.42285157,0.02246094 0.4716797,0.0678711 0.5205078,0.11279297 0.5449219,0.1743164 0.5449219,0.2524414 Z" />
    </symbol>
    <symbol
       id="font_0_3">
      <path
         id="path148"
         d="m 0.42773438,0.30810548 v 0.11474609 h -0.28125 V 0.59228518 H 0.47558595 V 0.7109375 H 0 V 0 H 0.4765625 V 0.11767578 H 0.14648438 v 0.1904297 z" />
    </symbol>
    <use
       height="100%"
       width="100%"
       y="0"
       x="0"
       style="fill:#ffffff"
       id="use151"
       transform="matrix(15.581006,0,0,-15.581006,149.70581,41.580823)"
       xlink:href="#font_0_7" />
    <use
       height="100%"
       width="100%"
       y="0"
       x="0"
       style="fill:#ffffff"
       id="use153"
       transform="matrix(15.581006,0,0,-15.581006,163.26038,41.580823)"
       xlink:href="#font_0_1" />
    <use
       height="100%"
       width="100%"
       y="0"
       x="0"
       style="fill:#ffffff"
       id="use155"
       transform="matrix(15.581006,0,0,-15.581006,174.56166,41.580823)"
       xlink:href="#font_0_d" />
    <use
       height="100%"
       width="100%"
       y="0"
       x="0"
       style="fill:#ffffff"
       id="use157"
       transform="matrix(15.581006,0,0,-15.581006,190.02947,41.580823)"
       xlink:href="#font_0_9" />
    <use
       height="100%"
       width="100%"
       y="0"
       x="0"
       style="fill:#ffffff"
       id="use159"
       transform="matrix(15.581006,0,0,-15.581006,200.78038,41.580823)"
       xlink:href="#font_0_6" />
    <use
       height="100%"
       width="100%"
       y="0"
       x="0"
       style="fill:#ffffff"
       id="use161"
       transform="matrix(15.581006,0,0,-15.581006,209.13088,41.580823)"
       xlink:href="#font_0_1" />
    <use
       height="100%"
       width="100%"
       y="0"
       x="0"
       style="fill:#ffffff"
       id="use163"
       transform="matrix(15.581006,0,0,-15.581006,221.25383,41.580823)"
       xlink:href="#font_0_8" />
    <use
       height="100%"
       width="100%"
       y="0"
       x="0"
       style="fill:#ffffff"
       id="use165"
       transform="matrix(15.581006,0,0,-15.581006,232.62042,41.73298)"
       xlink:href="#font_0_2" />
    <use
       height="100%"
       width="100%"
       y="0"
       x="0"
       style="fill:#ffffff"
       id="use167"
       transform="matrix(15.581006,0,0,-15.581006,243.84632,41.580823)"
       xlink:href="#font_0_5" />
    <use
       height="100%"
       width="100%"
       y="0"
       x="0"
       style="fill:#ffffff"
       id="use169"
       transform="matrix(15.581006,0,0,-15.581006,258.65257,41.580823)"
       xlink:href="#font_0_4" />
    <use
       height="100%"
       width="100%"
       y="0"
       x="0"
       style="fill:#ffffff"
       id="use171"
       transform="matrix(15.581006,0,0,-15.581006,263.75883,41.580823)"
       xlink:href="#font_0_8" />
    <use
       height="100%"
       width="100%"
       y="0"
       x="0"
       style="fill:#ffffff"
       id="use173"
       transform="matrix(15.581006,0,0,-15.581006,274.9961,41.73298)"
       xlink:href="#font_0_a" />
    <use
       height="100%"
       width="100%"
       y="0"
       x="0"
       style="fill:#ffffff"
       id="use175"
       transform="matrix(15.581006,0,0,-15.581006,285.05894,41.580823)"
       xlink:href="#font_0_b" />
    <use
       height="100%"
       width="100%"
       y="0"
       x="0"
       style="fill:#ffffff"
       id="use177"
       transform="matrix(15.581006,0,0,-15.581006,296.21839,41.580823)"
       xlink:href="#font_0_4" />
    <use
       height="100%"
       width="100%"
       y="0"
       x="0"
       style="fill:#ffffff"
       id="use179"
       transform="matrix(15.581006,0,0,-15.581006,300.4218,41.580823)"
       xlink:href="#font_0_b" />
    <use
       height="100%"
       width="100%"
       y="0"
       x="0"
       style="fill:#ffffff"
       id="use181"
       transform="matrix(15.581006,0,0,-15.581006,311.3458,41.73298)"
       xlink:href="#font_0_c" />
    <use
       height="100%"
       width="100%"
       y="0"
       x="0"
       style="fill:#ffffff"
       id="use183"
       transform="matrix(15.581006,0,0,-15.581006,321.72105,41.580823)"
       xlink:href="#font_0_b" />
    <use
       height="100%"
       width="100%"
       y="0"
       x="0"
       style="fill:#ffffff"
       id="use185"
       transform="matrix(15.581006,0,0,-15.581006,332.75154,41.580823)"
       xlink:href="#font_0_3" />
    <symbol
       id="font_1_4">
      <path
         id="path187"
         d="M 0.39208985,0.31396485 V 0.390625 H 0.09375 V 0.63378909 H 0.4404297 V 0.7109375 H 0 V 0 h 0.09375 v 0.31396485 z" />
    </symbol>
    <symbol
       id="font_1_8">
      <path
         id="path190"
         d="m 0.57177737,0.34228517 v 0.0449219 c 0,0.0693359 -0.0117188,0.12988283 -0.0351563,0.18212892 -0.0234375,0.0522461 -0.0571289,0.0922851 -0.10058593,0.11962891 -0.043457,0.0273437 -0.09375,0.0415039 -0.15039063,0.0415039 -0.0561523,0 -0.10595704,-0.0141602 -0.14941407,-0.0419922 C 0.09277344,0.66064456 0.05908203,0.62060549 0.03564453,0.5683594 0.01171875,0.515625 0,0.4555664 0,0.38720704 V 0.3359375 C 4.8828127e-4,0.2685547 0.01269531,0.20947266 0.03662109,0.1586914 0.06054688,0.10791016 0.09423828,0.06835938 0.13769531,0.04101563 0.18066406,0.01367188 0.23046875,0 0.2866211,0 0.34375,0 0.39404298,0.01367188 0.43701173,0.04101563 c 0.0429687,0.02734375 0.0761719,0.06689453 0.0996094,0.11865234 0.0234375,0.0517578 0.0351563,0.11279298 0.0351563,0.1826172 M 0.47851563,0.3881836 V 0.33544923 C 0.47753907,0.2529297 0.46044923,0.18945313 0.4272461,0.14550781 0.39404298,0.1015625 0.34716798,0.07958985 0.2866211,0.07958985 c -0.0605469,0 -0.10791016,0.02294921 -0.14208985,0.06982421 -0.0341797,0.046875 -0.05126953,0.11083984 -0.05126953,0.19287111 v 0.0522461 c 9.7656e-4,0.0800781 0.01806641,0.14257814 0.05224609,0.18750001 0.0341797,0.0449218 0.0805664,0.0678711 0.14013673,0.0678711 0.0605469,0 0.10791016,-0.0229493 0.14208984,-0.0678711 0.0336914,-0.0449219 0.0507813,-0.10986329 0.0507813,-0.19384768 z" />
    </symbol>
    <symbol
       id="font_1_9">
      <path
         id="path193"
         d="M 0.26123048,0.28759767 0.41552735,0 H 0.5161133 V 0.00585938 L 0.3491211,0.3076172 c 0.0424805,0.0161133 0.0756836,0.0405273 0.0996094,0.0737305 0.0239258,0.0327148 0.0361328,0.0712891 0.0361328,0.11572263 0,0.069336 -0.0219727,0.1225586 -0.0649414,0.1591797 C 0.37695313,0.6923828 0.3154297,0.7109375 0.23535156,0.7109375 H 0 V 0 h 0.09423828 v 0.28759767 h 0.1669922 m -0.1669922,0.0766601 v 0.26953129 h 0.14355469 c 0.0493164,-4.8829e-4 0.0869141,-0.012207 0.11328126,-0.0356445 0.0263672,-0.0234375 0.0395508,-0.057129 0.0395508,-0.10107426 0,-0.0405273 -0.0141601,-0.0727539 -0.0415039,-0.0966797 -0.0273438,-0.024414 -0.0644532,-0.0361328 -0.11083988,-0.0361328 z" />
    </symbol>
    <symbol
       id="font_1_7">
      <path
         id="path196"
         d="M 0.12109375,0.7109375 H 0 V 0 H 0.09375 V 0.27685548 L 0.08447266,0.57421877 0.3173828,0 H 0.3891602 L 0.6225586,0.5756836 0.61376956,0.27685548 V 0 h 0.09375 V 0.7109375 H 0.5859375 L 0.35351563,0.13085938 Z" />
    </symbol>
    <symbol
       id="font_1_1">
      <path
         id="path199"
         d="M 0.46142579,0.18554688 0.5292969,0 H 0.6254883 L 0.35351563,0.7109375 H 0.27148438 L 0,0 H 0.09667969 L 0.16357422,0.18554688 H 0.46142579 M 0.19189453,0.2626953 0.3125,0.59521487 0.43359376,0.2626953 Z" />
    </symbol>
    <symbol
       id="font_1_b">
      <path
         id="path202"
         d="M 0.5498047,0.63378909 V 0.7109375 H 0 V 0.63378909 H 0.22802735 V 0 h 0.0932617 v 0.63378909 z" />
    </symbol>
    <symbol
       id="font_1_5">
      <path
         id="path205"
         d="M 0.5463867,0 V 0.7109375 H 0.45214845 V 0.40527345 H 0.09375 V 0.7109375 H 0 V 0 H 0.09375 V 0.32861329 H 0.45214845 V 0 Z" />
    </symbol>
    <symbol
       id="font_1_3">
      <path
         id="path208"
         d="m 0.40185548,0.32861329 v 0.0766602 H 0.09375 v 0.2285156 H 0.44677735 V 0.7109375 H 0 V 0 H 0.45166017 V 0.07666016 H 0.09375 v 0.25195313 z" />
    </symbol>
    <symbol
       id="font_1_6">
      <path
         id="path211"
         d="M 0.09375,0 V 0.7109375 H 0 V 0 Z" />
    </symbol>
    <symbol
       id="font_1_2">
      <path
         id="path214"
         d="M 0.5473633,0.23535156 H 0.453125 C 0.44384767,0.17675781 0.42529298,0.1352539 0.39746095,0.11181641 0.3696289,0.08837891 0.32958985,0.07666016 0.27783204,0.07666016 c -0.0581055,0 -0.10302735,0.02246094 -0.13525391,0.06835937 -0.0322266,0.0454102 -0.04833985,0.1069336 -0.04833985,0.18408204 v 0.0688477 c 0,0.081543 0.01660157,0.14453126 0.05078125,0.18896486 0.0341797,0.0439453 0.0810547,0.0664062 0.14111327,0.0664062 0.0488281,0 0.0864258,-0.0126953 0.11376955,-0.0380859 C 0.4272461,0.58984377 0.44482423,0.5488281 0.453125,0.4921875 H 0.5473633 C 0.5395508,0.56640627 0.5131836,0.625 0.46777345,0.6669922 0.421875,0.7089844 0.36132813,0.73046877 0.2861328,0.73046877 0.2290039,0.73046877 0.17871094,0.7167969 0.13574219,0.6899414 0.09228516,0.66308596 0.05859375,0.6245117 0.03515625,0.57470706 0.01171875,0.52441409 0,0.4663086 0,0.40039063 V 0.33203126 C 0,0.23095703 0.02490234,0.15039063 0.0756836,0.09033203 0.12646485,0.02978516 0.19384766,0 0.27783204,0 0.35498048,0 0.4169922,0.02001953 0.4638672,0.06103516 c 0.046875,0.04101562 0.074707,0.09912109 0.0834961,0.1743164 z" />
    </symbol>
    <symbol
       id="font_1_a">
      <path
         id="path217"
         d="m 0.2529297,0.32666017 c 0.0639648,-0.0185547 0.10839843,-0.0375977 0.1328125,-0.0566406 0.0244141,-0.019043 0.0366211,-0.0458984 0.0366211,-0.0805664 0,-0.0351563 -0.0131836,-0.0625 -0.0395508,-0.0825195 C 0.3564453,0.08642578 0.31835938,0.07666016 0.26904298,0.07666016 c -0.0532227,0 -0.0957031,0.01220703 -0.12744142,0.03710937 -0.0317383,0.0249024 -0.04736328,0.059082 -0.04736328,0.10205078 H 0 C 0,0.1743164 0.01123047,0.13720703 0.03417969,0.10498047 0.05712891,0.07226563 0.08984375,0.04638672 0.13232422,0.02783203 0.1743164,0.00927734 0.22021485,0 0.26904298,0 c 0.0751953,0 0.1352539,0.01708984 0.18017578,0.05175781 0.0449219,0.03466797 0.0673828,0.08105469 0.0673828,0.13867188 0,0.0361328 -0.008301,0.0673828 -0.0244141,0.0942383 -0.0161133,0.0263672 -0.0410156,0.0498047 -0.0742187,0.0698242 -0.0332031,0.0200195 -0.0795899,0.0385742 -0.13867188,0.0551758 -0.059082,0.0166016 -0.10107422,0.034668 -0.12548828,0.0546875 -0.0244141,0.0200195 -0.0366211,0.0444336 -0.0366211,0.0737305 0,0.0361328 0.0126953,0.0639648 0.0385742,0.0844726 0.0258789,0.0205078 0.0620117,0.0307617 0.10839845,0.0307617 0.0498047,0 0.0883789,-0.0126953 0.11572263,-0.0371093 0.0273438,-0.0244141 0.0410156,-0.0581055 0.0410156,-0.10107426 h 0.0942383 c 0,0.0390625 -0.0107421,0.0756836 -0.0317383,0.10888676 -0.0209961,0.0332031 -0.0507813,0.059082 -0.0888672,0.078125 -0.038086,0.0185546 -0.081543,0.0283203 -0.13037109,0.0283203 -0.0717774,0 -0.12988282,-0.0185547 -0.1748047,-0.0551758 C 0.04443359,0.6386719 0.02246094,0.59228518 0.02246094,0.5366211 c 0,-0.0498047 0.0180664,-0.0913086 0.0546875,-0.125 C 0.11376953,0.3779297 0.17236328,0.3496094 0.2529297,0.32666017 Z" />
    </symbol>
    <use
       height="100%"
       width="100%"
       y="0"
       x="0"
       style="fill:#ffffff"
       id="use220"
       transform="matrix(11.820051,0,0,-11.820051,149.60749,54.043817)"
       xlink:href="#font_1_4" />
    <use
       height="100%"
       width="100%"
       y="0"
       x="0"
       style="fill:#ffffff"
       id="use222"
       transform="matrix(11.820051,0,0,-11.820051,156.38153,54.159246)"
       xlink:href="#font_1_8" />
    <use
       height="100%"
       width="100%"
       y="0"
       x="0"
       style="fill:#ffffff"
       id="use224"
       transform="matrix(11.820051,0,0,-11.820051,165.3342,54.043817)"
       xlink:href="#font_1_9" />
    <use
       height="100%"
       width="100%"
       y="0"
       x="0"
       style="fill:#ffffff"
       id="use226"
       transform="matrix(11.820051,0,0,-11.820051,176.21443,54.043817)"
       xlink:href="#font_1_7" />
    <use
       height="100%"
       width="100%"
       y="0"
       x="0"
       style="fill:#ffffff"
       id="use228"
       transform="matrix(11.820051,0,0,-11.820051,186.35784,54.043817)"
       xlink:href="#font_1_1" />
    <use
       height="100%"
       width="100%"
       y="0"
       x="0"
       style="fill:#ffffff"
       id="use230"
       transform="matrix(11.820051,0,0,-11.820051,193.97295,54.043817)"
       xlink:href="#font_1_b" />
    <use
       height="100%"
       width="100%"
       y="0"
       x="0"
       style="fill:#ffffff"
       id="use232"
       transform="matrix(11.820051,0,0,-11.820051,202.254,54.043817)"
       xlink:href="#font_1_5" />
    <use
       height="100%"
       width="100%"
       y="0"
       x="0"
       style="fill:#ffffff"
       id="use234"
       transform="matrix(11.820051,0,0,-11.820051,211.2136,54.043817)"
       xlink:href="#font_1_3" />
    <use
       height="100%"
       width="100%"
       y="0"
       x="0"
       style="fill:#ffffff"
       id="use236"
       transform="matrix(11.820051,0,0,-11.820051,218.45928,54.043817)"
       xlink:href="#font_1_7" />
    <use
       height="100%"
       width="100%"
       y="0"
       x="0"
       style="fill:#ffffff"
       id="use238"
       transform="matrix(11.820051,0,0,-11.820051,228.59087,54.043817)"
       xlink:href="#font_1_1" />
    <use
       height="100%"
       width="100%"
       y="0"
       x="0"
       style="fill:#ffffff"
       id="use240"
       transform="matrix(11.820051,0,0,-11.820051,236.20598,54.043817)"
       xlink:href="#font_1_b" />
    <use
       height="100%"
       width="100%"
       y="0"
       x="0"
       style="fill:#ffffff"
       id="use242"
       transform="matrix(11.820051,0,0,-11.820051,244.56783,54.043817)"
       xlink:href="#font_1_6" />
    <use
       height="100%"
       width="100%"
       y="0"
       x="0"
       style="fill:#ffffff"
       id="use244"
       transform="matrix(11.820051,0,0,-11.820051,247.9454,54.159246)"
       xlink:href="#font_1_2" />
    <use
       height="100%"
       width="100%"
       y="0"
       x="0"
       style="fill:#ffffff"
       id="use246"
       transform="matrix(11.820051,0,0,-11.820051,255.94707,54.159246)"
       xlink:href="#font_1_a" />
  </g>
</svg>
